<svg width="60" height="60" viewBox="0 0 60 60" fill="none" xmlns="http://www.w3.org/2000/svg">
<g id="add_photo_alternate_FILL0_wght400_GRAD0_opsz24 2">
<path id="Vector" d="M12.5 52.5C11.125 52.5 9.94792 52.0104 8.96875 51.0312C7.98958 50.0521 7.5 48.875 7.5 47.5V12.5C7.5 11.125 7.98958 9.94792 8.96875 8.96875C9.94792 7.98958 11.125 7.5 12.5 7.5H35V12.5H12.5V47.5H47.5V25H52.5V47.5C52.5 48.875 52.0104 50.0521 51.0312 51.0312C50.0521 52.0104 48.875 52.5 47.5 52.5H12.5ZM42.5 22.5V17.5H37.5V12.5H42.5V7.5H47.5V12.5H52.5V17.5H47.5V22.5H42.5ZM15 42.5H45L35.625 30L28.125 40L22.5 32.5L15 42.5Z" fill="#FD8533"/>
</g>
</svg>
